# xmcd CD database file
#
# Track frame offsets:
#	150
#	13507
#	25025
#	35627
#	47690
#	59567
#	72827
#	85087
#	97327
#	110470
#	129765
#	141527
#	154440
#	169122
#	182607
#	198412
#	208185
#	222632
#	235807
#	249907
#
# Disc length: 3505 seconds
#
# Revision: 3
# Processed by: cddbd v1.4PL0 Copyright (c) Steve Scherf et al.
# Submitted via: CDex 1.40Beta9
#
DISCID=250daf14
DTITLE=Otis Redding - the very best of [CD 2)
DYEAR=1900
DGENRE=
TTITLE0=I've Been Loving You Too Long (To Stop Now)
TTITLE1=These Arms Of Mine
TTITLE2=Hard To Handle
TTITLE3=That's What My Heart Needs
TTITLE4=Security
TTITLE5=Satisfaction
TTITLE6=Fa Fa Fa Fa Fa (Sad Song)
TTITLE7=The Happy Song (Dum Dum)
TTITLE8=Come To Me
TTITLE9=A Change Is Gonna Come
TTITLE10=Lovey Dovey
TTITLE11=You Don't Miss Your Water
TTITLE12=I've Got Dreams To Remember
TTITLE13=Down In The Valley
TTITLE14=Just One More Day
TTITLE15=You Made A Man Out Of Me
TTITLE16=Tell The Truth
TTITLE17=For Your Precious Love
TTITLE18=Free Me
TTITLE19=I Love You More Than Words Can Say
EXTD=
EXTT0=
EXTT1=
EXTT2=
EXTT3=
EXTT4=
EXTT5=
EXTT6=
EXTT7=
EXTT8=
EXTT9=
EXTT10=
EXTT11=
EXTT12=
EXTT13=
EXTT14=
EXTT15=
EXTT16=
EXTT17=
EXTT18=
EXTT19=
PLAYORDER=
